<svg width="88" height="79" viewBox="0 0 88 79" fill="none" xmlns="http://www.w3.org/2000/svg">
<path d="M87.6201 2.16999C87.4803 3.20471 87.5502 4.3774 87.2008 5.34314C85.384 10.2408 83.2878 15.0005 81.5409 19.8982C80.0735 24.0371 79.0253 28.3139 77.7675 32.5218C76.8592 35.6949 75.8809 38.8681 74.9725 42.0412C73.575 47.0079 72.2473 51.9745 70.7799 56.8722C69.1029 62.7356 66.7271 68.2542 62.7442 73.0139C57.6432 79.1532 48.6292 80.6018 41.5717 76.8768C35.6322 73.7037 30.6012 69.3579 25.7098 64.943C19.421 59.2176 13.9707 52.8713 9.42871 45.6972C8.45044 44.1796 7.4023 42.5931 6.63366 40.9375C6.21441 40.1097 6.28428 39.006 6.14453 38.0403C6.35416 37.9023 6.63366 37.8334 6.84329 37.6954C7.54205 38.5232 8.38057 39.213 8.93958 40.1787C15.4381 51.4917 23.9629 61.0801 34.1649 69.2889C38.008 72.393 42.2705 75.0833 47.0919 76.049C54.0795 77.4977 58.4817 76.187 62.6743 69.4268C65.12 65.4949 66.9368 61.2181 68.1246 56.6653C69.592 51.2847 70.9896 45.9732 72.5268 40.6616C73.7846 36.4537 75.1821 32.2459 76.6495 28.107C79.2349 20.9329 81.8902 13.7589 84.5455 6.51582C84.9648 5.41212 85.3142 4.23943 85.7334 3.13573C85.9431 2.58388 86.4322 2.16999 86.7816 1.7561C87.131 2.03203 87.4105 2.10101 87.6201 2.16999Z" fill="#436169"/>
<path d="M44.4373 65.0812C44.2277 64.3913 43.8084 63.7705 43.8783 63.0807C44.1578 57.9761 44.9264 52.9404 47.442 48.3876C48.2106 47.008 48.3504 45.6973 47.3721 44.3867C40.4544 34.9362 33.7463 25.4168 26.6888 16.1043C23.3347 11.8964 19.3518 8.17138 14.5303 5.61906C11.3859 3.96351 8.03184 2.65286 4.25853 3.82554C3.35014 4.10147 2.302 4.03249 1.32374 3.96351C0.90448 3.96351 0.345471 3.6186 0.275595 3.34267C0.205719 2.99776 0.5551 2.44591 0.90448 2.23897C1.67312 1.89406 2.51163 1.54915 3.35014 1.41119C12.3642 0.0315571 19.212 3.96351 25.1515 10.1718C30.8813 16.1732 35.2136 23.2094 39.8954 29.9695C42.6205 33.9705 45.4854 37.8334 48.2805 41.7654C49.6081 43.5589 50.237 43.5589 51.4948 41.6964C55.897 35.2121 60.1594 28.6589 64.5616 22.2436C68.2651 16.7941 70.5011 10.7927 72.5275 4.58434C72.807 3.6186 73.1564 2.58387 73.6455 1.7561C73.9949 1.13526 74.8334 0.790354 75.3924 0.376465C75.5322 1.06628 75.9514 1.89406 75.8117 2.51489C75.3924 4.17045 74.9033 5.82601 74.2045 7.41258C71.6191 12.8621 69.3132 18.3806 66.3085 23.4853C62.116 30.5214 57.4343 37.2816 52.7526 44.0418C48.9094 49.6293 46.7432 55.6997 46.0444 62.3909C45.9746 63.3566 45.3457 64.2534 44.9963 65.1501C44.7867 65.1501 44.577 65.1501 44.4373 65.0812Z" fill="#436169"/>
</svg>
