<svg width="48" height="95" viewBox="0 0 48 95" fill="none" xmlns="http://www.w3.org/2000/svg">
<path d="M43.9212 23.34H35.7687V4.45593C35.7398 2.51618 34.1554 0.947266 32.1965 0.947266H15.3441C13.414 0.947266 11.8296 2.51618 11.8296 4.45593V23.34H3.6483C1.7182 23.34 0.162598 24.8804 0.162598 26.7916V89.0063C0.162598 91.8589 2.496 94.1694 5.37675 94.1694H42.1927C45.0735 94.1694 47.4069 91.8589 47.4069 89.0063V26.7916C47.3781 24.8804 45.8225 23.34 43.9212 23.34ZM12.6939 4.45593C12.6939 3.00112 13.9038 1.80304 15.373 1.80304H32.2253C33.6945 1.80304 34.9044 3.00112 34.9044 4.45593V23.34H12.6939V4.45593ZM46.5138 89.0063C46.5138 91.3739 44.5549 93.3137 42.1639 93.3137H5.37675C2.98573 93.3137 1.02682 91.3739 1.02682 89.0063V26.7916C1.02682 25.3653 2.20793 24.2243 3.6483 24.2243H12.2617H35.3077H43.8924C45.3327 24.2243 46.5138 25.3938 46.5138 26.7916V89.0063Z" fill="#436169"/>
<path d="M37.6413 34.5797C35.8552 34.5797 34.9622 34.1233 34.0979 33.6954C33.2337 33.2675 32.3983 32.8682 30.6987 32.8682C28.999 32.8682 28.1636 33.2675 27.2994 33.6954C26.4351 34.1233 25.5421 34.5797 23.756 34.5797C21.9988 34.5797 21.0769 34.1233 20.2127 33.6954C19.3485 33.2675 18.5131 32.8682 16.8134 32.8682C15.1138 32.8682 14.2784 33.2675 13.4142 33.6954C12.5499 34.1233 11.6569 34.5797 9.87083 34.5797C8.11358 34.5797 7.19174 34.1233 6.32751 33.6954C5.46329 33.2675 4.65668 32.8682 3.04346 32.8682V86.6681C3.04346 88.9502 4.91594 90.8329 7.24935 90.8329H40.2915C42.5961 90.8329 44.4974 88.9787 44.4974 86.6681V32.8682C42.8842 32.8967 42.0776 33.2961 41.2134 33.6954C40.3204 34.1233 39.4273 34.5797 37.6413 34.5797Z" fill="#436169"/>
<path d="M44.7562 86.6388C44.7562 89.092 42.7397 91.0889 40.2622 91.0889H7.22004C4.7426 91.0889 2.72607 89.092 2.72607 86.6388V32.5823H2.89892C4.65618 32.5823 5.57802 33.0387 6.44224 33.4666C7.30646 33.8945 8.14188 34.2938 9.84152 34.2938C11.5412 34.2938 12.3766 33.8945 13.2408 33.4666C14.105 33.0387 14.9981 32.5823 16.7841 32.5823C18.5702 32.5823 19.4632 33.0387 20.3274 33.4666C21.1917 33.8945 22.0271 34.2938 23.7267 34.2938C25.4264 34.2938 26.2618 33.8945 27.126 33.4666C27.9902 33.0387 28.8833 32.5823 30.6693 32.5823C32.4554 32.5823 33.3484 33.0387 34.2127 33.4666C35.0769 33.8945 35.9123 34.2938 37.6119 34.2938C39.3116 34.2938 40.147 33.8945 41.0112 33.4666C41.8755 33.0387 42.7685 32.5823 44.5545 32.5823H44.7274V86.6388H44.7562Z" fill="#436169"/>
<path d="M44.5834 32.5823C42.8261 32.5823 41.9043 33.0387 41.04 33.4666C40.1758 33.8945 39.3404 34.2938 37.6407 34.2938C35.9411 34.2938 35.1057 33.8945 34.2415 33.4666C33.3772 33.0387 32.4842 32.5823 30.6981 32.5823C28.9409 32.5823 28.019 33.0387 27.1548 33.4666C26.2906 33.8945 25.4552 34.2938 23.7555 34.2938C22.0559 34.2938 21.2205 33.8945 20.3563 33.4666C19.492 33.0387 18.599 32.5823 16.8129 32.5823C15.0269 32.5823 14.1338 33.0387 13.2696 33.4666C12.4054 33.8945 11.57 34.2938 9.87033 34.2938C8.17069 34.2938 7.33527 33.8945 6.47105 33.4666C5.60682 33.0387 4.71379 32.5823 2.92773 32.5823H2.72607V86.6388C2.72607 89.092 4.7426 91.0889 7.22004 91.0889H40.2622C42.7397 91.0889 44.7562 89.092 44.7562 86.6388V32.5823H44.5834Z" fill="#436169"/>
</svg>
