<svg width="54" height="87" viewBox="0 0 54 87" fill="none" xmlns="http://www.w3.org/2000/svg">
<path d="M50.44 30.3674C50.5221 22.8167 49.29 16.7275 46.1687 11.1254C42.8832 5.27977 35.08 2.35695 28.591 3.33122C16.6809 5.11739 9.94553 12.8304 5.0172 22.7355C3.29229 26.1455 2.88159 29.9614 3.37442 33.7773C3.5387 34.9952 3.70298 36.213 3.62084 37.4309C3.62084 37.8368 3.04587 38.324 2.71731 38.7299C2.30662 38.324 1.64951 37.9992 1.56737 37.5933C-0.403961 30.6109 0.91026 24.197 4.36009 17.9454C7.9742 11.2066 13.2311 6.41643 20.0486 3.16884C29.0017 -1.13421 39.6798 -0.4035 46.5794 7.71546C49.0436 10.5571 50.6042 13.8047 51.3435 17.4582C52.1649 21.2741 52.7398 25.1712 52.9863 29.0683C53.1505 31.0981 52.822 33.2902 52.3292 35.2388C51.2614 39.5418 50.1114 43.8449 48.7972 48.0667C46.9901 53.5876 45.1831 59.0273 43.0475 64.467C40.6654 70.5562 38.5298 76.6455 34.0122 81.7604C29.0839 87.2813 22.3485 88.5803 16.0238 84.5209C13.8882 83.1406 11.9169 81.598 10.0277 79.9742C9.53483 79.5683 9.37056 78.594 9.12414 77.8633C9.94553 77.9445 10.9312 77.7009 11.5883 78.1069C12.9847 78.9188 14.0525 80.299 15.4488 81.1109C17.338 82.2476 19.3094 83.303 21.3628 84.1961C25.5519 85.9011 28.9196 84.1149 31.4659 80.9485C33.6015 78.2693 35.4086 75.2652 36.7228 72.0988C39.9262 64.7918 42.9653 57.3223 45.7581 49.8529C48.2222 43.1141 51.0971 36.5378 50.44 30.3674Z" fill="#436169"/>
<path d="M41.5695 21.9237C40.6659 20.787 40.091 20.0563 39.5981 19.3256C35.4091 13.2364 31.3843 11.9374 25.0596 13.1552C16.7635 14.779 12.4923 24.1158 17.9135 31.504C19.4741 33.5337 21.6097 35.2387 23.7453 36.7813C27.3594 39.5418 30.645 42.3834 32.4521 46.7676C34.5877 52.1261 31.22 60.5698 25.8809 62.5995C25.2238 62.8431 24.3203 62.5183 23.4989 62.4371C23.9096 61.7064 24.0739 60.651 24.6489 60.4074C31.22 57.1598 32.4521 47.3359 25.5524 42.0586C23.0882 40.1913 20.6241 38.2427 18.242 36.213C14.2994 32.8842 12.4102 28.7436 12.903 23.5475C13.6423 15.6721 21.5276 7.79673 30.5629 10.6384C34.7519 11.9374 38.6125 13.5612 41.4052 17.0523C42.473 18.4325 42.5551 19.8127 41.5695 21.9237Z" fill="#436169"/>
<path d="M18.0776 56.1048C17.5847 56.9979 17.0097 58.1345 16.3526 59.19C15.6134 60.4078 15.0384 61.7069 14.1349 62.7623C13.8063 63.1683 12.8207 63.1683 12.1636 63.3307C12.1636 62.6812 11.9993 61.8692 12.3278 61.3009C12.7385 60.3266 13.4778 59.5147 14.0528 58.6216C15.8598 56.0236 14.792 53.7503 13.0671 51.6393C11.9171 50.2591 10.6851 48.8789 9.53512 47.4174C9.28871 47.0927 9.20657 46.1184 9.45298 46.0372C9.86368 45.7936 10.6029 45.6313 11.0958 45.7936C13.1492 46.6055 18.0776 53.8314 18.0776 56.1048Z" fill="#436169"/>
</svg>
