<svg width="67" height="84" viewBox="0 0 67 84" fill="none" xmlns="http://www.w3.org/2000/svg">
<path d="M30.579 58.9413C32.2704 60.812 33.8942 62.5491 35.3826 64.4866C38.1566 68.0944 40.1863 72.1031 41.6071 76.379C42.013 77.5148 42.4866 78.6506 42.9602 79.7196C43.0955 80.0536 43.2985 80.4545 43.2985 80.8553C43.2308 81.3898 42.9602 81.8575 42.8249 82.3252C42.3513 82.0579 41.7424 81.8575 41.5394 81.4566C40.6599 79.6527 39.9156 77.782 39.0361 75.9781C37.277 72.1031 35.9239 68.0276 33.0146 64.7539C30.2407 61.547 26.7225 59.2754 22.7984 57.6051C22.1218 57.3379 21.5806 56.8702 20.9717 56.4693C21.0393 56.2689 21.1747 56.0685 21.2423 55.8012C22.1218 55.9348 23.0014 56.0016 23.8809 56.2689C25.0988 56.6029 26.1813 57.1374 27.3991 57.3379C28.008 57.4715 28.9552 57.2042 29.2935 56.8034C38.4272 46.5813 47.4932 36.3592 56.4916 26.0035C59.4685 22.5293 61.8365 18.5875 63.2573 14.1779C64.2722 10.9042 65.0164 7.63046 63.9339 4.15629C63.5956 3.0205 63.7309 1.75109 63.6632 0.481683C63.8662 0.414872 64.1368 0.348061 64.3398 0.28125C64.7458 0.882549 65.4223 1.41704 65.49 2.01834C65.8283 4.35672 66.2342 6.76192 66.0312 9.1003C65.49 15.3805 63.1896 20.9259 58.9949 25.8031C49.5229 36.8269 40.1186 47.9175 30.579 58.9413Z" fill="#436169"/>
<path d="M0.472168 57.204C1.01342 51.9928 1.89297 47.7168 3.71971 43.7082C6.0877 38.4301 8.4557 33.152 10.8913 27.9407C13.2593 22.7963 15.8303 17.7854 18.1983 12.641C19.7544 9.3672 21.2429 5.95983 22.7313 2.68608C22.8666 2.41883 23.002 2.01797 23.2049 1.81753C23.6109 1.55029 24.0845 1.48348 24.4904 1.34985C24.6257 1.81753 24.8964 2.35202 24.761 2.68608C24.0845 4.42317 23.3402 6.16026 22.596 7.89735C20.4986 12.7078 18.4013 17.5182 16.1686 22.3286C13.7329 27.6735 11.162 32.9516 8.72633 38.2965C7.17021 41.7038 5.41113 44.9776 4.32862 48.5186C1.96062 55.9346 2.56954 63.0834 7.71147 69.4305C10.756 73.2387 13.6653 77.1138 16.6422 80.922C16.8452 81.1893 17.1158 81.4565 17.2511 81.7238C17.4541 82.3251 17.4541 82.9264 17.5894 83.5945C16.9805 83.394 16.1009 83.394 15.7627 82.9932C10.5531 77.4478 5.47879 71.8357 2.50188 64.6869C1.35171 62.0813 1.01342 59.2084 0.472168 57.204Z" fill="#436169"/>
</svg>
