<svg width="86" height="168" viewBox="0 0 86 168" fill="none" xmlns="http://www.w3.org/2000/svg">
<path d="M78.9528 40.8482H64.4131V7.16919C64.3617 3.70972 61.536 0.911621 58.0424 0.911621H27.9868C24.5446 0.911621 21.7188 3.70972 21.7188 7.16919V40.8482H7.12775C3.68549 40.8482 0.911133 43.5954 0.911133 47.004V157.961C0.911133 163.049 5.07267 167.17 10.2104 167.17H75.8702C81.0079 167.17 85.1694 163.049 85.1694 157.961V47.004C85.1181 43.5954 82.3437 40.8482 78.9528 40.8482ZM23.2601 7.16919C23.2601 4.57459 25.418 2.43786 28.0382 2.43786H58.0938C60.714 2.43786 62.8718 4.57459 62.8718 7.16919V40.8482H23.2601V7.16919ZM83.5767 157.961C83.5767 162.184 80.0831 165.643 75.8188 165.643H10.2104C5.94608 165.643 2.45244 162.184 2.45244 157.961V47.004C2.45244 44.4603 4.5589 42.4253 7.12775 42.4253H22.4895H63.5911H78.9014C81.4703 42.4253 83.5767 44.5111 83.5767 47.004V157.961Z" fill="#99BAC1"/>
<path d="M67.7526 60.8943C64.5673 60.8943 62.9746 60.0803 61.4333 59.3172C59.8919 58.554 58.402 57.8418 55.3708 57.8418C52.3395 57.8418 50.8496 58.554 49.3083 59.3172C47.767 60.0803 46.1743 60.8943 42.9889 60.8943C39.8549 60.8943 38.2108 60.0803 36.6695 59.3172C35.1282 58.554 33.6383 57.8418 30.607 57.8418C27.5758 57.8418 26.0859 58.554 24.5446 59.3172C23.0032 60.0803 21.4106 60.8943 18.2252 60.8943C15.0912 60.8943 13.4471 60.0803 11.9058 59.3172C10.3645 58.554 8.92594 57.8418 6.04883 57.8418V153.791C6.04883 157.861 9.38833 161.219 13.5499 161.219H72.4793C76.5895 161.219 79.9804 157.912 79.9804 153.791V57.8418C77.1032 57.8927 75.6647 58.6049 74.1234 59.3172C72.5307 60.0803 70.938 60.8943 67.7526 60.8943Z" fill="#99BAC1"/>
<path d="M80.443 153.739C80.443 158.114 76.8466 161.675 72.4281 161.675H13.4987C9.08028 161.675 5.48389 158.114 5.48389 153.739V57.3315H5.79215C8.92615 57.3315 10.5702 58.1455 12.1115 58.9087C13.6528 59.6718 15.1428 60.384 18.174 60.384C21.2053 60.384 22.6952 59.6718 24.2365 58.9087C25.7778 58.1455 27.3705 57.3315 30.5559 57.3315C33.7412 57.3315 35.3339 58.1455 36.8752 58.9087C38.4166 59.6718 39.9065 60.384 42.9377 60.384C45.969 60.384 47.4589 59.6718 49.0002 58.9087C50.5415 58.1455 52.1342 57.3315 55.3196 57.3315C58.505 57.3315 60.0977 58.1455 61.639 58.9087C63.1803 59.6718 64.6702 60.384 67.7015 60.384C70.7327 60.384 72.2226 59.6718 73.7639 58.9087C75.3053 58.1455 76.8979 57.3315 80.0833 57.3315H80.3916V153.739H80.443Z" fill="#99BAC1"/>
<path d="M80.1347 57.3315C77.0007 57.3315 75.3566 58.1455 73.8153 58.9087C72.274 59.6718 70.7841 60.384 67.7528 60.384C64.7216 60.384 63.2317 59.6718 61.6903 58.9087C60.149 58.1455 58.5563 57.3315 55.371 57.3315C52.237 57.3315 50.5929 58.1455 49.0516 58.9087C47.5103 59.6718 46.0204 60.384 42.9891 60.384C39.9579 60.384 38.4679 59.6718 36.9266 58.9087C35.3853 58.1455 33.7926 57.3315 30.6072 57.3315C27.4219 57.3315 25.8292 58.1455 24.2879 58.9087C22.7466 59.6718 21.2566 60.384 18.2254 60.384C15.1941 60.384 13.7042 59.6718 12.1629 58.9087C10.6216 58.1455 9.0289 57.3315 5.84353 57.3315H5.48389V153.739C5.48389 158.114 9.08028 161.675 13.4987 161.675H72.4281C76.8466 161.675 80.443 158.114 80.443 153.739V57.3315H80.1347Z" fill="#99BAC1"/>
</svg>
