<svg width="88" height="73" viewBox="0 0 88 73" fill="none" xmlns="http://www.w3.org/2000/svg">
<path d="M0.883764 3.18576C3.10295 4.04224 3.10295 5.83304 3.49924 7.3124C4.2918 10.4268 6.35248 12.8405 9.12647 12.7627C11.6627 12.6848 14.4367 12.2177 16.7351 11.1276C22.1246 8.40246 27.3555 5.28801 32.6657 2.32929C33.379 1.93998 34.0131 1.23923 34.8057 0.927789C35.2812 0.694206 35.836 0.927789 36.3908 0.927789C36.3908 1.47282 36.47 2.09571 36.2323 2.56287C35.9945 3.03004 35.4397 3.41935 34.9642 3.73079C31.9524 5.83304 28.9407 8.01315 25.8496 10.1154C24.6608 10.894 24.2645 11.8284 24.5815 13.0741C24.8986 14.3199 25.2948 15.5657 25.5326 16.8115C27.6725 26.0769 27.0385 35.576 26.3252 44.8415C26.0082 48.8903 23.5512 52.7055 22.1246 56.5985C21.8868 57.2993 21.649 58.0779 21.2528 59.4015C26.563 56.91 29.8917 52.394 35.2019 50.8368C35.7567 52.6276 34.6471 53.4062 33.6961 54.107C29.0992 57.455 24.423 60.6473 19.8261 64.0732C16.6559 66.409 13.5648 69.0563 10.3946 71.3921C9.52275 72.0929 8.25464 72.2486 7.14505 72.6379C7.54133 71.6257 7.62059 70.2242 8.41316 69.3677C11.1871 66.2533 14.3574 63.5282 16.9729 60.258C19.8261 56.6764 21.4905 52.4719 22.7586 48.0338C24.8193 41.1041 25.2156 34.0188 24.6608 26.9334C24.3438 22.8846 23.3134 18.8359 22.4416 14.7871C22.1246 13.2298 20.698 12.7627 18.9543 13.3077C16.4973 14.0863 14.0404 14.7092 11.6627 15.3321C8.25464 16.2664 3.97478 14.9428 2.23113 12.1398C0.487481 9.41465 0.0911968 6.61165 0.883764 3.18576Z" fill="#436169"/>
<path d="M66.3498 37.3669C62.2284 27.0892 61.1981 16.5001 60.9603 5.75519C60.9603 5.21016 61.5944 4.66513 61.9114 4.1201C62.1492 4.1201 62.3869 4.04224 62.5454 4.04224C62.9417 4.97657 63.4965 5.83305 63.5758 6.76739C64.6061 14.9428 65.3987 23.1183 66.6668 31.2159C67.3008 35.4983 70.4711 38.3013 74.2754 40.4035C80.2989 43.7516 83.8655 48.9683 85.6091 55.4308C86.6395 59.0903 87.115 62.8276 87.7491 66.565C87.8283 66.9543 87.9076 67.4215 87.7491 67.7329C87.432 68.2779 86.9565 68.7451 86.5602 69.2123C86.2432 68.7451 85.6884 68.3558 85.5299 67.8108C85.1336 65.7085 84.9751 63.6063 84.5788 61.504C83.3107 54.73 80.3782 48.7347 75.068 44.063C69.6785 39.3135 63.338 39.0799 56.7597 41.26C54.699 41.9608 52.7176 42.8951 50.7362 43.518C49.7851 43.8294 48.7548 43.6737 47.5659 43.6737C47.9622 41.5715 49.4681 41.1822 50.7362 40.6371C55.1746 38.7684 59.6922 37.3669 64.6854 37.6784C65.0816 37.7562 65.5572 37.5227 66.3498 37.3669Z" fill="#436169"/>
</svg>
