<svg width="49" height="95" viewBox="0 0 49 95" fill="none" xmlns="http://www.w3.org/2000/svg">
<path d="M44.553 23.34H36.4005V4.45593C36.3717 2.51618 34.7873 0.947266 32.8284 0.947266H15.976C14.0459 0.947266 12.4615 2.51618 12.4615 4.45593V23.34H4.28014C2.35004 23.34 0.794434 24.8804 0.794434 26.7916V89.0063C0.794434 91.8589 3.12784 94.1694 6.00859 94.1694H42.8246C45.7053 94.1694 48.0387 91.8589 48.0387 89.0063V26.7916C48.0099 24.8804 46.4543 23.34 44.553 23.34ZM13.3257 4.45593C13.3257 3.00112 14.5356 1.80304 16.0048 1.80304H32.8572C34.3263 1.80304 35.5363 3.00112 35.5363 4.45593V23.34H13.3257V4.45593ZM47.1457 89.0063C47.1457 91.3739 45.1868 93.3137 42.7958 93.3137H6.00859C3.61757 93.3137 1.65866 91.3739 1.65866 89.0063V26.7916C1.65866 25.3653 2.83977 24.2243 4.28014 24.2243H12.8936H35.9396H44.5242C45.9646 24.2243 47.1457 25.3938 47.1457 26.7916V89.0063Z" fill="#C87B7D"/>
<path d="M38.2731 34.5797C36.487 34.5797 35.594 34.1233 34.7298 33.6954C33.8655 33.2675 33.0301 32.8682 31.3305 32.8682C29.6308 32.8682 28.7954 33.2675 27.9312 33.6954C27.067 34.1233 26.1739 34.5797 24.3879 34.5797C22.6306 34.5797 21.7088 34.1233 20.8446 33.6954C19.9803 33.2675 19.1449 32.8682 17.4453 32.8682C15.7456 32.8682 14.9102 33.2675 14.046 33.6954C13.1818 34.1233 12.2887 34.5797 10.5027 34.5797C8.74541 34.5797 7.82357 34.1233 6.95935 33.6954C6.09512 33.2675 5.28851 32.8682 3.67529 32.8682V86.6681C3.67529 88.9502 5.54778 90.8329 7.88119 90.8329H40.9234C43.228 90.8329 45.1293 88.9787 45.1293 86.6681V32.8682C43.516 32.8967 42.7094 33.2961 41.8452 33.6954C40.9522 34.1233 40.0591 34.5797 38.2731 34.5797Z" fill="#C87B7D"/>
<path d="M45.3885 86.6388C45.3885 89.092 43.372 91.0889 40.8946 91.0889H7.85237C5.37492 91.0889 3.3584 89.092 3.3584 86.6388V32.5823H3.53124C5.2885 32.5823 6.21034 33.0387 7.07456 33.4666C7.93879 33.8945 8.77421 34.2938 10.4738 34.2938C12.1735 34.2938 13.0089 33.8945 13.8731 33.4666C14.7374 33.0387 15.6304 32.5823 17.4165 32.5823C19.2025 32.5823 20.0955 33.0387 20.9598 33.4666C21.824 33.8945 22.6594 34.2938 24.3591 34.2938C26.0587 34.2938 26.8941 33.8945 27.7583 33.4666C28.6226 33.0387 29.5156 32.5823 31.3017 32.5823C33.0877 32.5823 33.9808 33.0387 34.845 33.4666C35.7092 33.8945 36.5446 34.2938 38.2443 34.2938C39.9439 34.2938 40.7793 33.8945 41.6435 33.4666C42.5078 33.0387 43.4008 32.5823 45.1869 32.5823H45.3597V86.6388H45.3885Z" fill="#C87B7D"/>
<path d="M45.2157 32.5823C43.4584 32.5823 42.5366 33.0387 41.6724 33.4666C40.8081 33.8945 39.9727 34.2938 38.2731 34.2938C36.5734 34.2938 35.738 33.8945 34.8738 33.4666C34.0096 33.0387 33.1165 32.5823 31.3305 32.5823C29.5732 32.5823 28.6514 33.0387 27.7871 33.4666C26.9229 33.8945 26.0875 34.2938 24.3879 34.2938C22.6882 34.2938 21.8528 33.8945 20.9886 33.4666C20.1244 33.0387 19.2313 32.5823 17.4453 32.5823C15.6592 32.5823 14.7662 33.0387 13.9019 33.4666C13.0377 33.8945 12.2023 34.2938 10.5027 34.2938C8.80301 34.2938 7.9676 33.8945 7.10337 33.4666C6.23915 33.0387 5.34612 32.5823 3.56005 32.5823H3.3584V86.6388C3.3584 89.092 5.37492 91.0889 7.85237 91.0889H40.8946C43.372 91.0889 45.3885 89.092 45.3885 86.6388V32.5823H45.2157Z" fill="#C87B7D"/>
</svg>
